<mxfile host="app.diagrams.net" modified="2023-05-07T03:15:20.613Z" agent="Mozilla/5.0 (Windows NT 10.0; Win64; x64) AppleWebKit/537.36 (KHTML, like Gecko) Chrome/112.0.0.0 Safari/537.36" etag="91Vh5ST6NWE3913UbnnG" version="21.2.1" type="device">
  <diagram name="Page-1" id="7e0a89b8-554c-2b80-1dc8-d5c74ca68de4">
    <mxGraphModel dx="753" dy="442" grid="1" gridSize="10" guides="1" tooltips="1" connect="1" arrows="1" fold="1" page="1" pageScale="1" pageWidth="1100" pageHeight="850" background="none" math="0" shadow="0">
      <root>
        <mxCell id="0" />
        <mxCell id="1" parent="0" />
        <mxCell id="AkCI75YJkZSJ7zXkfSYh-3" value="" style="rounded=0;whiteSpace=wrap;html=1;" vertex="1" parent="1">
          <mxGeometry x="210" y="120" width="160" height="210" as="geometry" />
        </mxCell>
        <mxCell id="AkCI75YJkZSJ7zXkfSYh-13" value="1" style="whiteSpace=wrap;html=1;aspect=fixed;" vertex="1" parent="1">
          <mxGeometry x="220" y="130" width="40" height="40" as="geometry" />
        </mxCell>
        <mxCell id="AkCI75YJkZSJ7zXkfSYh-16" value="2" style="whiteSpace=wrap;html=1;aspect=fixed;" vertex="1" parent="1">
          <mxGeometry x="270" y="130" width="40" height="40" as="geometry" />
        </mxCell>
        <mxCell id="AkCI75YJkZSJ7zXkfSYh-17" value="3" style="whiteSpace=wrap;html=1;aspect=fixed;" vertex="1" parent="1">
          <mxGeometry x="320" y="130" width="40" height="40" as="geometry" />
        </mxCell>
        <mxCell id="AkCI75YJkZSJ7zXkfSYh-18" value="4" style="whiteSpace=wrap;html=1;aspect=fixed;" vertex="1" parent="1">
          <mxGeometry x="220" y="180" width="40" height="40" as="geometry" />
        </mxCell>
        <mxCell id="AkCI75YJkZSJ7zXkfSYh-19" value="5" style="whiteSpace=wrap;html=1;aspect=fixed;" vertex="1" parent="1">
          <mxGeometry x="270" y="180" width="40" height="40" as="geometry" />
        </mxCell>
        <mxCell id="AkCI75YJkZSJ7zXkfSYh-20" value="6" style="whiteSpace=wrap;html=1;aspect=fixed;" vertex="1" parent="1">
          <mxGeometry x="320" y="180" width="40" height="40" as="geometry" />
        </mxCell>
        <mxCell id="AkCI75YJkZSJ7zXkfSYh-21" value="7" style="whiteSpace=wrap;html=1;aspect=fixed;" vertex="1" parent="1">
          <mxGeometry x="220" y="230" width="40" height="40" as="geometry" />
        </mxCell>
        <mxCell id="AkCI75YJkZSJ7zXkfSYh-22" value="8" style="whiteSpace=wrap;html=1;aspect=fixed;" vertex="1" parent="1">
          <mxGeometry x="270" y="230" width="40" height="40" as="geometry" />
        </mxCell>
        <mxCell id="AkCI75YJkZSJ7zXkfSYh-23" value="9" style="whiteSpace=wrap;html=1;aspect=fixed;" vertex="1" parent="1">
          <mxGeometry x="320" y="230" width="40" height="40" as="geometry" />
        </mxCell>
        <mxCell id="AkCI75YJkZSJ7zXkfSYh-24" value="*" style="whiteSpace=wrap;html=1;aspect=fixed;" vertex="1" parent="1">
          <mxGeometry x="220" y="280" width="40" height="40" as="geometry" />
        </mxCell>
        <mxCell id="AkCI75YJkZSJ7zXkfSYh-25" value="0" style="whiteSpace=wrap;html=1;aspect=fixed;" vertex="1" parent="1">
          <mxGeometry x="270" y="280" width="40" height="40" as="geometry" />
        </mxCell>
        <mxCell id="AkCI75YJkZSJ7zXkfSYh-26" value="#" style="whiteSpace=wrap;html=1;aspect=fixed;" vertex="1" parent="1">
          <mxGeometry x="320" y="280" width="40" height="40" as="geometry" />
        </mxCell>
        <mxCell id="AkCI75YJkZSJ7zXkfSYh-27" value="" style="rounded=0;whiteSpace=wrap;html=1;" vertex="1" parent="1">
          <mxGeometry x="610" y="120" width="160" height="210" as="geometry" />
        </mxCell>
        <mxCell id="AkCI75YJkZSJ7zXkfSYh-28" value="1" style="whiteSpace=wrap;html=1;aspect=fixed;" vertex="1" parent="1">
          <mxGeometry x="620" y="130" width="40" height="40" as="geometry" />
        </mxCell>
        <mxCell id="AkCI75YJkZSJ7zXkfSYh-29" value="2" style="whiteSpace=wrap;html=1;aspect=fixed;" vertex="1" parent="1">
          <mxGeometry x="670" y="130" width="40" height="40" as="geometry" />
        </mxCell>
        <mxCell id="AkCI75YJkZSJ7zXkfSYh-30" value="3" style="whiteSpace=wrap;html=1;aspect=fixed;" vertex="1" parent="1">
          <mxGeometry x="720" y="130" width="40" height="40" as="geometry" />
        </mxCell>
        <mxCell id="AkCI75YJkZSJ7zXkfSYh-31" value="4" style="whiteSpace=wrap;html=1;aspect=fixed;" vertex="1" parent="1">
          <mxGeometry x="620" y="180" width="40" height="40" as="geometry" />
        </mxCell>
        <mxCell id="AkCI75YJkZSJ7zXkfSYh-32" value="5" style="whiteSpace=wrap;html=1;aspect=fixed;" vertex="1" parent="1">
          <mxGeometry x="670" y="180" width="40" height="40" as="geometry" />
        </mxCell>
        <mxCell id="AkCI75YJkZSJ7zXkfSYh-33" value="6" style="whiteSpace=wrap;html=1;aspect=fixed;" vertex="1" parent="1">
          <mxGeometry x="720" y="180" width="40" height="40" as="geometry" />
        </mxCell>
        <mxCell id="AkCI75YJkZSJ7zXkfSYh-34" value="7" style="whiteSpace=wrap;html=1;aspect=fixed;" vertex="1" parent="1">
          <mxGeometry x="620" y="230" width="40" height="40" as="geometry" />
        </mxCell>
        <mxCell id="AkCI75YJkZSJ7zXkfSYh-35" value="8" style="whiteSpace=wrap;html=1;aspect=fixed;" vertex="1" parent="1">
          <mxGeometry x="670" y="230" width="40" height="40" as="geometry" />
        </mxCell>
        <mxCell id="AkCI75YJkZSJ7zXkfSYh-36" value="9" style="whiteSpace=wrap;html=1;aspect=fixed;" vertex="1" parent="1">
          <mxGeometry x="720" y="230" width="40" height="40" as="geometry" />
        </mxCell>
        <mxCell id="AkCI75YJkZSJ7zXkfSYh-37" value="*" style="whiteSpace=wrap;html=1;aspect=fixed;" vertex="1" parent="1">
          <mxGeometry x="620" y="280" width="40" height="40" as="geometry" />
        </mxCell>
        <mxCell id="AkCI75YJkZSJ7zXkfSYh-38" value="0" style="whiteSpace=wrap;html=1;aspect=fixed;" vertex="1" parent="1">
          <mxGeometry x="670" y="280" width="40" height="40" as="geometry" />
        </mxCell>
        <mxCell id="AkCI75YJkZSJ7zXkfSYh-39" value="#" style="whiteSpace=wrap;html=1;aspect=fixed;" vertex="1" parent="1">
          <mxGeometry x="720" y="280" width="40" height="40" as="geometry" />
        </mxCell>
        <mxCell id="AkCI75YJkZSJ7zXkfSYh-55" value="" style="verticalLabelPosition=bottom;shadow=0;dashed=0;align=center;html=1;verticalAlign=top;shape=mxgraph.electrical.transmission.4_line_bus;" vertex="1" parent="1">
          <mxGeometry x="80" y="140" width="130" height="30" as="geometry" />
        </mxCell>
        <mxCell id="AkCI75YJkZSJ7zXkfSYh-57" value="" style="verticalLabelPosition=bottom;shadow=0;dashed=0;align=center;html=1;verticalAlign=top;shape=mxgraph.electrical.transmission.4_line_bus;" vertex="1" parent="1">
          <mxGeometry x="480" y="140" width="130" height="30" as="geometry" />
        </mxCell>
        <mxCell id="AkCI75YJkZSJ7zXkfSYh-58" value="" style="verticalLabelPosition=bottom;shadow=0;dashed=0;align=center;html=1;verticalAlign=top;shape=mxgraph.electrical.transmission.3_line_bus;" vertex="1" parent="1">
          <mxGeometry x="80" y="270" width="130" height="20" as="geometry" />
        </mxCell>
        <mxCell id="AkCI75YJkZSJ7zXkfSYh-59" value="" style="verticalLabelPosition=bottom;shadow=0;dashed=0;align=center;html=1;verticalAlign=top;shape=mxgraph.electrical.transmission.3_line_bus;" vertex="1" parent="1">
          <mxGeometry x="480" y="270" width="130" height="20" as="geometry" />
        </mxCell>
        <mxCell id="AkCI75YJkZSJ7zXkfSYh-60" value="Text" style="text;html=1;strokeColor=none;fillColor=none;align=center;verticalAlign=middle;whiteSpace=wrap;rounded=0;" vertex="1" parent="1">
          <mxGeometry x="80" y="110" width="60" height="30" as="geometry" />
        </mxCell>
      </root>
    </mxGraphModel>
  </diagram>
</mxfile>
